<?xml version="1.0" encoding="utf-8"?>
<!-- Generator: Adobe Illustrator 23.0.1, SVG Export Plug-In . SVG Version: 6.00 Build 0)  -->
<svg width="173px" height="62px" viewBox="0 0 173 62" version="1.1" xmlns="http://www.w3.org/2000/svg" xmlns:xlink="http://www.w3.org/1999/xlink">
	 viewBox="0 0 173 62" style="enable-background:new 0 0 173 62;" xml:space="preserve">
<style type="text/css">
	.st0{fill:#004C3B;}
	.st1{fill:#13A438;}
</style>
<title>Group</title>
<desc>Created with Sketch.</desc>
<g>
	<g>
		<g>
			<path class="st0" d="M14.1,18.88c0-1.91-1.42-2.84-3.78-2.84H5.8v5.68h4.56C12.57,21.73,14.1,20.79,14.1,18.88 M5.8,6.09v5.12
				h4.34c1.76,0,2.95-0.97,2.95-2.62c0-1.61-1.23-2.51-2.92-2.51H5.8z M20.12,19.63c0,5.39-4.19,7.37-8.9,7.37H0V0.82h10.85
				c4.6,0,8.08,1.94,8.08,6.51c0,3.03-1.42,4.9-4.15,5.8v0.08C17.73,13.69,20.12,15.29,20.12,19.63"/>
		</g>
	</g>
	<g>
		<polygon class="st0" points="82.38,0.82 82.38,27 98.77,27 98.77,21.73 88.18,21.73 88.18,15.63 97.53,15.63 97.53,10.36 
			88.18,10.36 88.18,6.09 98.58,6.09 98.58,0.82 		"/>
	</g>
	<g>
		<g>
			<path class="st0" d="M127.04,13.2c0,8.23-4.04,14.36-12.83,14.36c-8.08,0-13.88-5.2-13.88-13.73c0-8.12,5.39-13.58,14.29-13.58
				c4.23,0,7.52,1.27,10.32,3.44l-3.78,4.97c-2.02-1.53-4.11-2.43-6.69-2.43c-4.97,0-7.74,3.29-7.74,7.63c0,4.45,2.84,7.7,7.89,7.7
				c4.23,0,5.98-2.39,6.28-4.53h-6.73v-5.2H127C127.04,12.3,127.04,12.75,127.04,13.2"/>
		</g>
	</g>
	<g>
		<polygon class="st0" points="129.92,0.82 129.92,27 146.3,27 146.3,21.73 135.71,21.73 135.71,15.63 145.06,15.63 145.06,10.36 
			135.71,10.36 135.71,6.09 146.11,6.09 146.11,0.82 		"/>
	</g>
	<g>
		<polygon class="st0" points="167.2,0.82 167.2,17.02 167.16,17.02 154.64,0.82 149.74,0.82 149.74,27 155.53,27 155.53,10.88 
			155.57,10.88 168.06,27 173,27 173,0.82 		"/>
	</g>
	<g>
		<g>
			<path class="st0" d="M94.74,46.97h3.81c2.32,0,3.63-0.9,3.63-3.07c0-1.94-1.31-3.07-3.63-3.07h-3.81V46.97z M95.9,51.83h-1.16
				v9.91h-5.8V35.56h10.47c5.87,0,8.9,3.63,8.9,8.19c0,3.81-2.06,6.84-6.1,7.78l7.48,10.21h-7.26L95.9,51.83z"/>
		</g>
	</g>
	<g>
		<polygon class="st0" points="127.13,35.56 117.82,47.15 117.82,35.56 112.02,35.56 112.02,61.74 117.82,61.74 117.82,49.17 
			128.63,61.74 136.89,61.74 124.21,47.83 135.02,35.56 		"/>
	</g>
	<g>
		<polygon class="st0" points="135.94,35.56 135.94,40.83 142.86,40.83 142.86,61.74 148.65,61.74 148.65,40.83 155.53,40.83 
			155.53,35.56 		"/>
	</g>
	<g>
		<polygon class="st0" points="58.3,0.82 52.65,17.65 52.58,17.65 47.91,0.82 41.14,0.82 49.93,27 55.05,27 60.81,10.02 
			60.88,10.02 65.68,24.15 68.49,16.04 63.39,0.82 		"/>
	</g>
	<g>
		<polygon class="st0" points="71.62,35.56 69.13,42.44 69.13,61.74 85.51,61.74 85.51,56.47 74.93,56.47 74.93,50.37 84.27,50.37 
			84.27,45.1 74.93,45.1 74.93,40.83 85.32,40.83 85.32,35.56 		"/>
	</g>
	<g>
		<polygon class="st1" points="73.79,0.82 55.85,52.39 55.78,52.39 50.13,35.56 45.05,35.56 39.4,52.39 39.32,52.39 34.65,35.56 
			27.88,35.56 36.67,61.74 41.79,61.74 47.55,44.76 47.63,44.76 53.39,61.74 58.51,61.74 80.56,0.82 		"/>
	</g>
	<polygon class="st0" points="29.17,15.63 38.52,15.63 38.52,10.36 29.17,10.36 29.17,6.09 39.57,6.09 37.8,0.82 23.37,0.82 
		23.37,27 39.75,27 39.75,21.73 29.17,21.73 	"/>
</g>
</svg>
